<svg xmlns="http://www.w3.org/2000/svg" width="40" height="40" viewBox="0 0 60 60" fill="none">
  <circle cx="30" cy="30" r="30" fill="#FFCD1D"/>
  <path d="M17.16 18.1579H37.7002V29.2106H40.8602V18.1579C40.8602 16.4163 39.4429 15 37.7002 15H17.16C15.4173 15 14 16.4163 14 18.1579V37.1053C14 38.8469 15.4173 40.2632 17.16 40.2632H29.8001V37.1053H17.16V18.1579Z" fill="#101010"/>
  <path d="M23.4793 27.6315L18.7393 33.9474H36.1194L29.7993 24.4736L25.0593 30.7894L23.4793 27.6315Z" fill="#101010"/>
  <path d="M40.86 32.3682H37.7V37.105H32.96V40.2629H37.7V44.9998H40.86V40.2629H45.6001V37.105H40.86V32.3682Z" fill="#101010"/>
</svg>