<svg width="21" height="6" viewBox="0 0 21 6" fill="none" xmlns="http://www.w3.org/2000/svg">
<g id="&#240;&#159;&#166;&#134; icon &#34;dots three outline&#34;">
<path id="Vector" d="M10.2939 0.0916748C9.75454 0.0916748 9.22725 0.251626 8.77876 0.551303C8.33026 0.850979 7.9807 1.27692 7.77427 1.77527C7.56785 2.27361 7.51384 2.82197 7.61908 3.35101C7.72431 3.88005 7.98406 4.366 8.36547 4.74742C8.74689 5.12884 9.23284 5.38858 9.76188 5.49381C10.2909 5.59905 10.8393 5.54504 11.3376 5.33862C11.836 5.1322 12.2619 4.78264 12.5616 4.33414C12.8613 3.88564 13.0212 3.35835 13.0212 2.81895C13.0204 2.09588 12.7328 1.40266 12.2215 0.891379C11.7102 0.380094 11.017 0.0924943 10.2939 0.0916748ZM10.2939 4.45531C9.9703 4.45531 9.65393 4.35934 9.38483 4.17953C9.11573 3.99973 8.906 3.74416 8.78214 3.44516C8.65829 3.14615 8.62589 2.81713 8.68902 2.49971C8.75216 2.18228 8.90801 1.89071 9.13686 1.66186C9.36571 1.43301 9.65728 1.27717 9.97471 1.21403C10.2921 1.15089 10.6211 1.18329 10.9202 1.30714C11.2192 1.431 11.4747 1.64073 11.6545 1.90983C11.8343 2.17893 11.9303 2.4953 11.9303 2.81895C11.9298 3.25279 11.7573 3.66872 11.4505 3.97549C11.1437 4.28226 10.7278 4.45482 10.2939 4.45531ZM3.02122 0.0916748C2.48182 0.0916748 1.95453 0.251626 1.50603 0.551303C1.05753 0.850979 0.707969 1.27692 0.501548 1.77527C0.295127 2.27361 0.241118 2.82197 0.34635 3.35101C0.451583 3.88005 0.71133 4.366 1.09275 4.74742C1.47416 5.12884 1.96012 5.38858 2.48915 5.49381C3.01819 5.59905 3.56656 5.54504 4.0649 5.33862C4.56325 5.1322 4.98919 4.78264 5.28886 4.33414C5.58854 3.88564 5.74849 3.35835 5.74849 2.81895C5.74767 2.09588 5.46007 1.40266 4.94879 0.891379C4.4375 0.380094 3.74429 0.0924943 3.02122 0.0916748ZM3.02122 4.45531C2.69758 4.45531 2.3812 4.35934 2.1121 4.17953C1.84301 3.99973 1.63327 3.74416 1.50942 3.44516C1.38556 3.14615 1.35316 2.81713 1.4163 2.49971C1.47944 2.18228 1.63529 1.89071 1.86414 1.66186C2.09299 1.43301 2.38456 1.27717 2.70198 1.21403C3.0194 1.15089 3.34842 1.18329 3.64743 1.30714C3.94643 1.431 4.202 1.64073 4.38181 1.90983C4.56161 2.17893 4.65758 2.4953 4.65758 2.81895C4.65709 3.25279 4.48454 3.66872 4.17776 3.97549C3.87099 4.28226 3.45506 4.45482 3.02122 4.45531ZM17.5667 0.0916748C17.0273 0.0916748 16.5 0.251626 16.0515 0.551303C15.603 0.850979 15.2534 1.27692 15.047 1.77527C14.8406 2.27361 14.7866 2.82197 14.8918 3.35101C14.997 3.88005 15.2568 4.366 15.6382 4.74742C16.0196 5.12884 16.5056 5.38858 17.0346 5.49381C17.5636 5.59905 18.112 5.54504 18.6104 5.33862C19.1087 5.1322 19.5346 4.78264 19.8343 4.33414C20.134 3.88564 20.2939 3.35835 20.2939 2.81895C20.2931 2.09588 20.0055 1.40266 19.4942 0.891379C18.983 0.380094 18.2897 0.0924943 17.5667 0.0916748ZM17.5667 4.45531C17.243 4.45531 16.9267 4.35934 16.6576 4.17953C16.3885 3.99973 16.1787 3.74416 16.0549 3.44516C15.931 3.14615 15.8986 2.81713 15.9618 2.49971C16.0249 2.18228 16.1807 1.89071 16.4096 1.66186C16.6384 1.43301 16.93 1.27717 17.2474 1.21403C17.5649 1.15089 17.8939 1.18329 18.1929 1.30714C18.4919 1.431 18.7475 1.64073 18.9273 1.90983C19.1071 2.17893 19.203 2.4953 19.203 2.81895C19.2025 3.25279 19.03 3.66872 18.7232 3.97549C18.4164 4.28226 18.0005 4.45482 17.5667 4.45531Z" fill="#FFCD1D"/>
</g>
</svg>
