<svg width="23" height="23" viewBox="0 0 23 23" fill="none" xmlns="http://www.w3.org/2000/svg">
<g id="&#240;&#159;&#166;&#134; icon &#34;edit&#34;">
<path id="Vector" d="M10.3451 3.41785H3.38736C2.86012 3.41785 2.35448 3.62729 1.98167 4.0001C1.60886 4.37291 1.39941 4.87855 1.39941 5.40579V19.3214C1.39941 19.8486 1.60886 20.3543 1.98167 20.7271C2.35448 21.0999 2.86012 21.3093 3.38736 21.3093H17.3029C17.8302 21.3093 18.3358 21.0999 18.7086 20.7271C19.0814 20.3543 19.2909 19.8486 19.2909 19.3214V12.3636" stroke="#FFCD1D" stroke-width="1.5" stroke-linecap="round" stroke-linejoin="round"/>
<path id="Vector_2" d="M17.8 1.92678C18.1954 1.53135 18.7317 1.3092 19.2909 1.3092C19.8501 1.3092 20.3865 1.53135 20.7819 1.92678C21.1773 2.3222 21.3995 2.85852 21.3995 3.41773C21.3995 3.97695 21.1773 4.51326 20.7819 4.90869L11.3392 14.3514L7.36328 15.3454L8.35725 11.3695L17.8 1.92678Z" stroke="#FFCD1D" stroke-width="1.5" stroke-linecap="round" stroke-linejoin="round"/>
</g>
</svg>
