<svg width="50" height="50" viewBox="0 0 50 50" fill="none" xmlns="http://www.w3.org/2000/svg">
<path d="M25 0C17.3828 0 11.9792 1.59505 8.78906 4.78516C7.61719 5.95703 6.90104 7.19401 6.64062 8.49609C4.7526 8.82161 3.17383 9.74935 1.9043 11.2793C0.634766 12.8092 0 14.5508 0 16.5039V33.4961C0 35.5143 0.602214 37.2721 1.80664 38.7695C3.01107 40.2669 4.55729 41.1784 6.44531 41.5039C6.70573 42.7409 7.38932 43.9779 8.49609 45.2148C11.4909 48.4049 16.6992 50 24.1211 50H25C31.25 49.9349 36.4909 48.1934 40.7227 44.7754C44.9544 41.3574 47.6888 37.4023 48.9258 32.9102C49.6419 30.2409 50 27.6042 50 25C50 22.3958 49.6419 19.7591 48.9258 17.0898C47.6888 12.5326 44.9219 8.54492 40.625 5.12695C36.3281 1.70898 31.1198 0 25 0ZM8.10547 37.5C7.0638 37.5 6.15234 37.0931 5.37109 36.2793C4.58984 35.4655 4.19922 34.5378 4.19922 33.4961V16.5039C4.19922 15.4622 4.58984 14.5345 5.37109 13.7207C6.15234 12.9069 7.0638 12.5 8.10547 12.5H8.49609C9.60286 12.5 10.5469 12.8906 11.3281 13.6719C12.1094 14.4531 12.5 15.3971 12.5 16.5039V33.4961C12.5 34.6029 12.1094 35.5469 11.3281 36.3281C10.5469 37.1094 9.60286 37.5 8.49609 37.5H8.10547ZM45.0195 31.8359C44.4987 33.724 43.5384 35.6445 42.1387 37.5977C40.7389 39.5508 38.5091 41.39 35.4492 43.1152C32.3893 44.8405 28.9062 45.7357 25 45.8008C18.1641 45.931 13.7044 44.8242 11.6211 42.4805C11.2956 42.1549 11.0352 41.7318 10.8398 41.2109C12.5326 40.6901 13.9323 39.7135 15.0391 38.2812C16.1458 36.849 16.6992 35.2539 16.6992 33.4961V16.5039C16.6992 14.681 16.1784 13.0697 15.1367 11.6699C14.0951 10.2702 12.7279 9.3099 11.0352 8.78906C11.1654 8.39844 11.4583 8.04036 11.9141 7.71484C13.9974 5.37109 18.3594 4.19922 25 4.19922C30.599 4.19922 35.0749 5.69661 38.4277 8.69141C41.7806 11.6862 43.9779 14.8438 45.0195 18.1641C45.5404 19.987 45.8008 22.2656 45.8008 25C45.8008 27.7344 45.5404 30.013 45.0195 31.8359ZM12.5 22.9492C12.5 24.056 12.0931 25.0163 11.2793 25.8301C10.4655 26.6439 9.47266 27.0508 8.30078 27.0508C7.19401 27.0508 6.23372 26.6439 5.41992 25.8301C4.60612 25.0163 4.19922 24.056 4.19922 22.9492C4.19922 21.7773 4.60612 20.7845 5.41992 19.9707C6.23372 19.1569 7.19401 18.75 8.30078 18.75C9.47266 18.75 10.4655 19.1569 11.2793 19.9707C12.0931 20.7845 12.5 21.7773 12.5 22.9492Z" fill="#0D0D0D"/>
</svg>
