<svg xmlns="http://www.w3.org/2000/svg" width="31" height="24" viewBox="0 0 31 24" fill="none">
  <path d="M3.035 24H7.80966V11.6394L0.98877 6.18616V21.8187C0.98877 23.0257 1.90618 24 3.035 24Z" fill="#4285F4"/>
  <path d="M24.1792 23.9999H28.9538C30.0861 23.9999 31.0001 23.022 31.0001 21.8186V6.18604L24.1792 11.6393" fill="#34A853"/>
  <path d="M24.1792 2.1875V11.6397L31.0001 6.18653V3.27813C31.0001 0.580567 28.1114 -0.957182 26.0891 0.660549" fill="#FBBC04"/>
  <path d="M7.81055 11.6387V2.18652L15.9956 8.73041L24.1806 2.18652V11.6387L15.9956 18.1826" fill="#EA4335"/>
  <path d="M0.98877 3.27813V6.18653L7.80966 11.6397V2.1875L5.89981 0.660549C3.87401 -0.957182 0.98877 0.580567 0.98877 3.27813Z" fill="#C5221F"/>
</svg>