<svg width="60" height="60" viewBox="0 0 60 60" fill="none" xmlns="http://www.w3.org/2000/svg">
<circle cx="30" cy="30" r="29" stroke="#B5B5B5" stroke-width="2"/>
<path fill-rule="evenodd" clip-rule="evenodd" d="M49.5129 50.0808C44.4701 54.9819 37.5874 57.9999 29.9998 57.9999C22.4123 57.9999 15.5296 54.9819 10.4868 50.0808C10.6409 49.9854 10.7986 49.8943 10.9599 49.8077C14.0341 48.2104 17.1578 47.012 20.3312 46.2123C23.5045 45.4147 26.7274 45.0159 29.9999 45.0159C33.2724 45.0159 36.4953 45.4147 39.6687 46.2123C42.842 47.012 45.9657 48.2104 49.0399 49.8077C49.2012 49.8943 49.3588 49.9854 49.5129 50.0808ZM21.5955 38.2921C23.926 40.7137 26.7274 41.9245 29.9999 41.9245C33.2724 41.9245 36.0739 40.7137 38.4043 38.2921C40.7347 35.8705 41.8999 32.9594 41.8999 29.5588C41.8999 26.1582 40.7347 23.2472 38.4043 20.8255C36.0739 18.4039 33.2724 17.1931 29.9999 17.1931C26.7274 17.1931 23.926 18.4039 21.5955 20.8255C19.2651 23.2472 18.0999 26.1582 18.0999 29.5588C18.0999 32.9594 19.2651 35.8705 21.5955 38.2921Z" fill="#B5B5B5"/>
</svg>
