<svg width="30" height="30" viewBox="0 0 30 30" fill="none" xmlns="http://www.w3.org/2000/svg">
<path fill-rule="evenodd" clip-rule="evenodd" d="M15 30C23.2843 30 30 23.2843 30 15C30 6.71573 23.2843 0 15 0C6.71573 0 0 6.71573 0 15C0 23.2843 6.71573 30 15 30ZM14.9999 7.5C16.1936 7.49912 17.3709 7.7766 18.4385 8.3104C19.5062 8.84422 20.4346 9.61966 21.1501 10.5751L21.3746 10.875H18.8966L18.8435 10.8281C18.0045 10.0883 16.9698 9.60632 15.8637 9.43997C14.7575 9.27361 13.6268 9.42998 12.6073 9.8903C11.5878 10.3506 10.7228 11.0953 10.1161 12.0351C9.50934 12.9748 9.18666 14.0697 9.18675 15.1883C9.18684 16.3069 9.50971 17.4017 10.1166 18.3414C10.7235 19.281 11.5886 20.0256 12.6082 20.4858C13.6278 20.9459 14.7585 21.1021 15.8646 20.9356C16.9707 20.769 18.0053 20.2868 18.8442 19.5469L18.8974 19.5H21.3754L21.1508 19.7999C20.4353 20.7554 19.5067 21.5309 18.439 22.0648C17.3712 22.5986 16.1936 22.876 14.9998 22.875C10.7541 22.8749 7.3125 19.4332 7.3125 15.1875C7.3125 10.9417 10.7542 7.50004 14.9999 7.5ZM20.0625 11.7974L24.3001 15.1875L20.0625 18.5776V16.125H14.0625V14.25H20.0625V11.7974Z" fill="#FFCD1D"/>
</svg>
