<svg width="63" height="45" viewBox="0 0 63 45" fill="none" xmlns="http://www.w3.org/2000/svg">
<path d="M12.3707 44.9522C11.2777 44.9541 10.1894 44.8105 9.13433 44.5252C5.96743 43.6221 3.28064 41.5137 1.6504 38.6524C0.0201608 35.791 -0.423663 32.4047 0.414148 29.2199L5.65075 9.35231C6.05857 7.7444 6.78358 6.2342 7.78318 4.9104C8.78279 3.58659 10.0368 2.47588 11.4717 1.64349C12.8688 0.834285 14.4126 0.310346 16.0136 0.10202C17.6146 -0.106306 19.241 0.0051236 20.7987 0.429853C22.4545 0.889659 23.9967 1.68845 25.3276 2.77559C26.6585 3.86273 27.749 5.21451 28.53 6.74524H34.3734C35.151 5.21206 36.2405 3.85829 37.5718 2.77074C38.9032 1.68319 40.4472 0.885851 42.1047 0.429853C43.6623 0.0051236 45.2888 -0.106306 46.8898 0.10202C48.4908 0.310346 50.0346 0.834285 51.4317 1.64349C52.8596 2.47375 54.109 3.57837 55.1081 4.8937C56.1071 6.20903 56.836 7.70906 57.2526 9.30736L62.4892 29.2199C63.3396 32.414 62.8993 35.8144 61.2634 38.6866C59.6276 41.5587 56.9276 43.6721 53.7466 44.5701C52.1889 44.9949 50.5625 45.1063 48.9615 44.898C47.3605 44.6897 45.8167 44.1657 44.4196 43.3565C42.9894 42.5292 41.7381 41.4255 40.7387 40.1097C39.7394 38.7939 39.0119 37.2924 38.5986 35.6926L38.1941 33.7149H24.7093L24.1924 35.6477C23.7792 37.2475 23.0517 38.749 22.0523 40.0648C21.0529 41.3805 19.8017 42.4842 18.3714 43.3116C16.5453 44.3648 14.4787 44.9299 12.3707 44.9522ZM17.5848 4.49777C16.2286 4.50238 14.8967 4.85858 13.7192 5.53161C11.8737 6.6144 10.5322 8.38414 9.98837 10.4536L4.75176 30.3212C4.2038 32.3681 4.48068 34.5482 5.52291 36.3931C6.56513 38.238 8.28952 39.6004 10.3255 40.1876C11.3088 40.4558 12.3355 40.5264 13.3462 40.3952C14.3569 40.264 15.3316 39.9338 16.2139 39.4234C17.1324 38.8931 17.9356 38.1845 18.5763 37.3393C19.217 36.494 19.6823 35.5292 19.9447 34.5015L21.3381 29.2199H41.5653L42.9363 34.5015C43.2033 35.5272 43.6703 36.49 44.3106 37.3347C44.9508 38.1794 45.7517 38.8892 46.6671 39.4234C47.5537 39.9332 48.5321 40.2632 49.5464 40.3943C50.5606 40.5254 51.5908 40.4552 52.5779 40.1876C54.6163 39.6059 56.3428 38.2433 57.3823 36.3959C58.4217 34.5484 58.6901 32.3654 58.1292 30.3212L52.8926 10.4536C52.6316 9.42826 52.1694 8.46509 51.5328 7.6201C50.8961 6.77511 50.0978 6.06517 49.1842 5.53161C48.2976 5.02181 47.3192 4.6919 46.3049 4.56078C45.2906 4.42965 44.2605 4.49989 43.2734 4.76747C42.0527 5.11544 40.9326 5.74965 40.0062 6.61741C39.0798 7.48518 38.3738 8.56146 37.9469 9.75685L37.4075 11.2402H25.4959L24.9565 9.75685C24.5258 8.55986 23.8158 7.48283 22.8856 6.61511C21.9553 5.74739 20.8316 5.11399 19.6075 4.76747C18.948 4.58962 18.2679 4.49895 17.5848 4.49777Z" fill="#0D0D0D"/>
<path d="M17.9669 22.4775C17.0778 22.4775 16.2088 22.2139 15.4696 21.72C14.7304 21.2261 14.1543 20.5241 13.8141 19.7027C13.4739 18.8814 13.3849 17.9776 13.5583 17.1057C13.7317 16.2337 14.1598 15.4328 14.7885 14.8042C15.4171 14.1756 16.218 13.7475 17.0899 13.574C17.9619 13.4006 18.8657 13.4896 19.687 13.8298C20.5083 14.17 21.2104 14.7461 21.7043 15.4853C22.1982 16.2245 22.4618 17.0936 22.4618 17.9826C22.4618 19.1747 21.9882 20.318 21.1453 21.161C20.3023 22.0039 19.159 22.4775 17.9669 22.4775Z" fill="#0D0D0D"/>
<path d="M44.9365 15.7351C46.1777 15.7351 47.184 14.7289 47.184 13.4876C47.184 12.2464 46.1777 11.2401 44.9365 11.2401C43.6952 11.2401 42.689 12.2464 42.689 13.4876C42.689 14.7289 43.6952 15.7351 44.9365 15.7351Z" fill="#0D0D0D"/>
<path d="M44.9365 24.725C46.1777 24.725 47.184 23.7187 47.184 22.4775C47.184 21.2362 46.1777 20.23 44.9365 20.23C43.6952 20.23 42.689 21.2362 42.689 22.4775C42.689 23.7187 43.6952 24.725 44.9365 24.725Z" fill="#0D0D0D"/>
<path d="M40.4416 20.23C41.6828 20.23 42.689 19.2238 42.689 17.9826C42.689 16.7413 41.6828 15.7351 40.4416 15.7351C39.2003 15.7351 38.1941 16.7413 38.1941 17.9826C38.1941 19.2238 39.2003 20.23 40.4416 20.23Z" fill="#0D0D0D"/>
<path d="M49.4314 20.23C50.6727 20.23 51.6789 19.2238 51.6789 17.9826C51.6789 16.7413 50.6727 15.7351 49.4314 15.7351C48.1902 15.7351 47.184 16.7413 47.184 17.9826C47.184 19.2238 48.1902 20.23 49.4314 20.23Z" fill="#0D0D0D"/>
</svg>
