<svg xmlns="http://www.w3.org/2000/svg" width="61" height="8" viewBox="0 0 61 8" fill="none">
  <path d="M56.1062 6.57365L58.0976 7.77809C58.4623 7.99883 58.9086 7.67252 58.8126 7.25985L58.2847 4.99492L60.0458 3.46897C60.3673 3.19065 60.1946 2.66281 59.7723 2.62922L57.4546 2.43247L56.5477 0.292307C56.3845 -0.0963778 55.8279 -0.0963778 55.6647 0.292307L54.7578 2.42768L52.4401 2.62442C52.0178 2.65801 51.845 3.18585 52.1666 3.46417L53.9276 4.99012L53.3998 7.25505C53.3038 7.66773 53.7501 7.99403 54.1148 7.77329L56.1062 6.57365Z" fill="#F4F4F4"/>
  <path d="M43.1062 6.57365L45.0976 7.77809C45.4623 7.99883 45.9086 7.67252 45.8126 7.25985L45.2847 4.99492L47.0458 3.46897C47.3673 3.19065 47.1946 2.66281 46.7723 2.62922L44.4546 2.43247L43.5477 0.292307C43.3845 -0.0963778 42.8279 -0.0963778 42.6647 0.292307L41.7578 2.42768L39.4401 2.62442C39.0178 2.65801 38.845 3.18585 39.1666 3.46417L40.9276 4.99012L40.3998 7.25505C40.3038 7.66773 40.7501 7.99403 41.1148 7.77329L43.1062 6.57365Z" fill="#FFCD1D"/>
  <path d="M30.1062 6.57365L32.0976 7.77809C32.4623 7.99883 32.9086 7.67252 32.8126 7.25985L32.2847 4.99492L34.0458 3.46897C34.3673 3.19065 34.1946 2.66281 33.7723 2.62922L31.4546 2.43247L30.5477 0.292307C30.3845 -0.0963778 29.8279 -0.0963778 29.6647 0.292307L28.7578 2.42768L26.4401 2.62442C26.0178 2.65801 25.845 3.18585 26.1666 3.46417L27.9276 4.99012L27.3998 7.25505C27.3038 7.66773 27.7501 7.99403 28.1148 7.77329L30.1062 6.57365Z" fill="#FFCD1D"/>
  <path d="M17.1062 6.57365L19.0976 7.77809C19.4623 7.99883 19.9086 7.67252 19.8126 7.25985L19.2847 4.99492L21.0458 3.46897C21.3673 3.19065 21.1946 2.66281 20.7723 2.62922L18.4546 2.43247L17.5477 0.292307C17.3845 -0.0963778 16.8279 -0.0963778 16.6647 0.292307L15.7578 2.42768L13.4401 2.62442C13.0178 2.65801 12.845 3.18585 13.1666 3.46417L14.9276 4.99012L14.3998 7.25505C14.3038 7.66773 14.7501 7.99403 15.1148 7.77329L17.1062 6.57365Z" fill="#FFCD1D"/>
  <path d="M4.10619 6.64945L6.0976 7.8539C6.46229 8.07463 6.90856 7.74833 6.81259 7.33565L6.28474 5.07072L8.04582 3.54477C8.36732 3.26646 8.19458 2.73861 7.7723 2.70502L5.45459 2.50828L4.54766 0.368113C4.3845 -0.0205721 3.82787 -0.0205721 3.66472 0.368113L2.75778 2.50348L0.44007 2.70022C0.0177954 2.73381 -0.154954 3.26166 0.166551 3.53997L1.92763 5.06592L1.39979 7.33085C1.30382 7.74353 1.75008 8.06983 2.11477 7.8491L4.10619 6.64945Z" fill="#FFCD1D"/>
</svg>