<svg width="80" height="42" viewBox="0 0 80 42" fill="none" xmlns="http://www.w3.org/2000/svg">
<path d="M39.8046 0C28.2607 0 18.8932 9.36756 18.8932 20.9114C18.8932 32.4553 28.2607 41.8228 39.8046 41.8228C51.3485 41.8228 60.716 32.4553 60.716 20.9114C60.716 9.36756 51.3485 0 39.8046 0ZM39.8046 37.8172C30.4686 37.8172 22.8988 30.2474 22.8988 20.9114C22.8988 11.5754 30.4686 4.00566 39.8046 4.00566C49.1406 4.00566 56.7104 11.5754 56.7104 20.9114C56.7104 30.2474 49.1406 37.8172 39.8046 37.8172Z" fill="#0D0D0D"/>
<path d="M12.3958 8.0428C8.61093 16.0857 8.57939 25.3901 12.2696 33.4645L15.8968 31.7298C14.3513 28.3234 13.5313 24.6332 13.5313 20.8798C13.5313 17.0319 14.3829 13.247 15.9914 9.74599L12.3958 8.0428Z" fill="#0D0D0D"/>
<path d="M63.5547 9.77759C65.1948 13.2471 66.0464 17.0635 66.0148 20.9114C66.0148 24.6648 65.2263 28.355 63.6493 31.7614L67.2765 33.4961C70.9667 25.4217 70.9352 16.1173 67.1503 8.0744L63.5547 9.77759Z" fill="#0D0D0D"/>
<path d="M75.7615 2.68108L72.1028 4.41581C74.6261 9.55693 75.9508 15.1712 75.9508 20.9115C75.9508 26.5258 74.6891 32.0769 72.229 37.155L75.8877 38.8897C81.4073 27.4405 81.3757 14.0988 75.7615 2.68108Z" fill="#0D0D0D"/>
<path d="M3.65906 3.87946C-1.16665 14.6033 -1.22973 26.9041 3.5329 37.6595L7.19161 35.9247C5.10993 31.1936 4.03755 26.084 4.03755 20.9114C4.03755 15.6441 5.14147 10.4399 7.31777 5.64573L3.65906 3.87946Z" fill="#0D0D0D"/>
<path d="M33.9381 31.0359L51.727 21.2899L33.9381 10.5661V31.0359Z" fill="#0D0D0D"/>
</svg>
